<?xml version="1.0" standalone="no"?><!DOCTYPE svg PUBLIC "-//W3C//DTD SVG 1.1//EN" "http://www.w3.org/Graphics/SVG/1.1/DTD/svg11.dtd"><svg class="icon" width="200px" height="200.00px" viewBox="0 0 1024 1024" version="1.1" xmlns="http://www.w3.org/2000/svg"><path d="M399.315568 508.076644l95.465259 0c172.19992 0 275.519054 76.075653 275.519054 203.470111 0 127.396505-110.570281 220.377176-258.600733 220.377176-143.197376 0-256.184707-87.546915-257.998005-199.848631l-30.211069 0c1.813299 128.602983 125.676327 227.622184 287.603277 227.622184 166.762071 0 289.416576-105.055684 289.416576-248.149706 0-123.772978-88.214111-208.90489-224.765113-217.3574l0-2.413979c116.00813-21.736047 186.700169-100.226702 186.700169-208.302163 0-125.58423-110.570281-219.168652-259.205507-219.168652-142.593626 0-252.559133 92.37692-259.205507 217.3574l29.606295 0c7.250124-108.075461 105.737206-189.584869 229.599212-189.584869 131.11213 0 228.995461 82.71691 228.995461 192.603623 0 115.320469-96.673783 195.621353-237.45411 195.621353l-95.465259 0L399.315568 508.076644z" fill="#ffd300" /></svg>