<?xml version="1.0" standalone="no"?><!DOCTYPE svg PUBLIC "-//W3C//DTD SVG 1.1//EN" "http://www.w3.org/Graphics/SVG/1.1/DTD/svg11.dtd"><svg class="icon" width="200px" height="200.00px" viewBox="0 0 1024 1024" version="1.1" xmlns="http://www.w3.org/2000/svg"><path d="M503.731686 959.696462c172.104753 0 300.723086-124.240629 300.723086-292.547893 0-166.471452-125.556601-292.548916-292.148803-292.548916-98.607832 0-191.70209 47.12632-241.925958 121.793904l-1.224898 0 45.323255-403.324882 431.178253 0 0-28.765137-457.514061 0-54.509475 477.992465 33.073256 0c50.834782-87.520309 142.093229-139.542126 244.98769-139.542126 148.216693 0 262.137279 115.060549 262.137279 265.00663 0 151.169955-115.14446 263.782755-269.486664 263.782755-130.456191 0-239.47514-82.623789-254.174933-192.788841l-30.623461 0C234.245022 865.444844 355.514993 959.696462 503.731686 959.696462z" fill="#ffd300" /></svg>