<?xml version="1.0" standalone="no"?><!DOCTYPE svg PUBLIC "-//W3C//DTD SVG 1.1//EN" "http://www.w3.org/Graphics/SVG/1.1/DTD/svg11.dtd"><svg class="icon" width="200px" height="200.00px" viewBox="0 0 1024 1024" version="1.1" xmlns="http://www.w3.org/2000/svg"><path d="M523.782348 959.696462c165.552523 0 290.019303-126.792755 290.019303-295.244304 0-162.414043-125.07053-286.791795-289.415552-286.791795-136.552026 0-253.767658 89.358167-282.166451 213.734896l-2.416026 0c-6.646374-311.545572 101.505835-499.318166 287.602254-499.318166 119.02893 0 216.910215 76.67838 234.43331 184.149067l30.211069 0c-18.730597-126.187981-126.279055-211.923644-264.643356-211.923644-193.951317 0-317.208549 183.54634-317.208549 472.753137 0 140.677996 30.81482 249.357208 90.026386 320.601832C353.998453 923.470399 433.151187 959.696462 523.782348 959.696462zM523.782348 931.922908c-150.448524 0-265.85188-121.357975-265.85188-278.338263 0-133.434012 122.654504-248.149706 264.643356-248.149706 147.426701 0 261.017782 112.905466 261.017782 259.017218C783.591605 815.394938 670.604274 931.922908 523.782348 931.922908z" fill="#ffd300" /></svg>