<?xml version="1.0" standalone="no"?><!DOCTYPE svg PUBLIC "-//W3C//DTD SVG 1.1//EN" "http://www.w3.org/Graphics/SVG/1.1/DTD/svg11.dtd"><svg class="icon" width="200px" height="200.00px" viewBox="0 0 1024 1024" version="1.1" xmlns="http://www.w3.org/2000/svg"><path d="M511.397273 959.696462c181.26232 0 299.686477-105.056708 299.686477-250.564709 0-112.905466-85.797062-202.867384-207.847815-224.602408l0-1.208525c103.320157-23.547299 176.428222-100.225679 176.428222-195.017602 0-130.414235-109.966531-223.998657-268.267906-223.998657-157.698648 0-267.665179 92.980671-267.665179 223.998657 0 98.414427 71.297836 172.678828 177.032996 195.017602l0 1.208525c-122.653481 21.735024-207.847815 111.697965-207.847815 224.602408C212.917274 854.640778 331.342454 959.696462 511.397273 959.696462zM511.397273 931.922908c-163.741271 0-268.26893-95.999424-268.26893-222.791156 0-121.357975 106.944707-208.90489 268.87268-208.90489 162.531723 0 268.873704 87.546915 268.873704 208.90489C780.873704 835.923484 675.137521 931.922908 511.397273 931.922908zM511.397273 471.245807c-137.759527 0-237.45411-76.679403-237.45411-182.339862 0-110.48944 93.652983-196.828854 238.057861-196.828854 145.009651 0 237.45411 86.339414 237.45411 196.828854C749.455133 394.566404 650.364301 471.245807 511.397273 471.245807z" fill="#ffd300" /></svg>