<?xml version="1.0" standalone="no"?><!DOCTYPE svg PUBLIC "-//W3C//DTD SVG 1.1//EN" "http://www.w3.org/Graphics/SVG/1.1/DTD/svg11.dtd"><svg class="icon" width="200px" height="200.00px" viewBox="0 0 1024 1024" version="1.1" xmlns="http://www.w3.org/2000/svg"><path d="M352.01024 192c-88.2688 0-160.01024 71.76192-160.01024 160.01024 0 60.2112 33.9968 112.47616 83.51744 139.50976C154.0096 525.5168 64 635.76064 64 768H640c0-39.5264-7.9872-77.27104-22.48704-111.75936 29.45024-29.2864 69.77536-48.2304 115.44576-48.2304 90.56256 0 163.04128 71.51616 163.04128 159.98976h64c0-97.28-63.75424-179.28192-151.51104-210.24768 51.5072-26.78784 87.51104-79.99488 87.51104-141.76256 0-87.98208-72.00768-159.98976-160.01024-159.98976-87.98208 0-159.98976 72.00768-159.98976 160.01024 0 60.94848 34.95936 113.74592 85.77024 140.6976-28.81536 9.5232-55.05024 23.7568-77.29152 42.8032A288.29696 288.29696 0 0 0 428.48256 491.52C478.0032 464.4864 512 412.24192 512 351.98976c0-88.22784-71.76192-159.98976-160.01024-159.98976z m384 128a95.37536 95.37536 0 0 1 95.98976 96.01024A95.37536 95.37536 0 0 1 735.98976 512a95.37536 95.37536 0 0 1-95.98976-96.01024 95.37536 95.37536 0 0 1 96.01024-95.98976z" fill="#ffd300" /></svg>