<?xml version="1.0" standalone="no"?><!DOCTYPE svg PUBLIC "-//W3C//DTD SVG 1.1//EN" "http://www.w3.org/Graphics/SVG/1.1/DTD/svg11.dtd"><svg class="icon" width="200px" height="200.00px" viewBox="0 0 1024 1024" version="1.1" xmlns="http://www.w3.org/2000/svg"><path d="M950.857143 0H292.571429a73.142857 73.142857 0 0 0-73.142858 73.142857v109.714286h73.142858V73.142857h292.571428v109.714286h73.142857V73.142857h292.571429v182.857143h-116.297143a108.251429 108.251429 0 0 1 6.582857 36.571429v36.571428H950.857143v146.285714h-109.714286v73.142858H950.857143V731.428571h-109.714286v73.142858H950.857143a73.142857 73.142857 0 0 0 73.142857-73.142858V73.142857a73.142857 73.142857 0 0 0-73.142857-73.142857z" fill="#ffd300" /><path d="M731.428571 219.428571H73.142857a73.142857 73.142857 0 0 0-73.142857 73.142858v658.285714a73.142857 73.142857 0 0 0 73.142857 73.142857h658.285714a73.142857 73.142857 0 0 0 73.142858-73.142857V292.571429a73.142857 73.142857 0 0 0-73.142858-73.142858zM365.714286 950.857143H73.142857v-182.857143h292.571429z m0-256H73.142857v-146.285714h292.571429z m0-219.428572H73.142857V292.571429h292.571429z m365.714285 475.428572H438.857143v-182.857143h292.571428z m0-256H438.857143v-146.285714h292.571428z m0-219.428572H438.857143V292.571429h292.571428z" fill="#ffd300" /></svg>