<?xml version="1.0" standalone="no"?><!DOCTYPE svg PUBLIC "-//W3C//DTD SVG 1.1//EN" "http://www.w3.org/Graphics/SVG/1.1/DTD/svg11.dtd"><svg class="icon" width="200px" height="200.00px" viewBox="0 0 1024 1024" version="1.1" xmlns="http://www.w3.org/2000/svg"><path d="M133.470976 832c-40.96-7.68-61.44-30.72-61.44-71.68l401.92-448c30.72 71.68 84.48 140.8 148.48 184.32l-488.96 335.36z m-5.12-66.56l7.68 7.68 412.16-284.16-5.12-5.12c-28.16-25.6-51.2-56.32-71.68-89.6l-5.12-5.12-337.92 376.32z" fill="#ffd300" /><path d="M156.510976 1024c-12.8 0-28.16 0-38.4-2.56-5.12 0-10.24-2.56-12.8-2.56-25.6-7.68-46.08-17.92-64-35.84-15.36-17.92-25.6-38.4-28.16-61.44-5.12-46.08 17.92-94.72 64-133.12l5.12-2.56 28.16 38.4-5.12 2.56c-33.28 28.16-51.2 58.88-46.08 89.6 2.56 12.8 7.68 25.6 15.36 33.28 10.24 10.24 23.04 17.92 40.96 23.04 2.56 0 7.68 2.56 10.24 2.56 10.24 2.56 20.48 2.56 30.72 2.56 64-2.56 140.8-38.4 225.28-102.4 102.4-79.36 199.68-122.88 276.48-125.44h7.68c12.8 0 23.04 0 35.84 2.56 28.16 5.12 51.2 15.36 71.68 30.72 23.04 17.92 40.96 43.52 53.76 71.68l2.56 7.68s2.56 28.16-28.16 25.6c-10.24 0-23.04-25.6-23.04-25.6-7.68-17.92-20.48-30.72-33.28-40.96-15.36-10.24-30.72-17.92-51.2-20.48-7.68-2.56-17.92-2.56-25.6-2.56h-5.12c-69.12 2.56-153.6 43.52-248.32 115.2-117.76 89.6-204.8 110.08-258.56 110.08zM1011.550976 248.32c0-71.68-28.16-135.68-76.8-179.2-2.56-2.56-5.12-2.56-5.12-5.12-5.12-5.12-10.24-10.24-17.92-15.36-7.68-5.12-15.36-10.24-25.6-15.36-2.56-2.56-7.68-5.12-12.8-5.12-5.12-2.56-12.8-5.12-17.92-7.68-2.56 0-5.12-2.56-5.12-2.56-23.04-7.68-46.08-12.8-69.12-15.36-5.12 0-10.24 0-15.36 5.12l-2.56 2.56c-5.12 5.12-7.68 10.24-10.24 17.92 0 5.12 0 12.8 5.12 15.36 5.12 7.68 12.8 10.24 20.48 12.8 30.72 2.56 56.32 10.24 81.92 25.6 2.56 0 2.56 2.56 5.12 2.56 23.04 15.36 46.08 33.28 61.44 58.88 28.16 43.52 38.4 94.72 28.16 143.36-10.24 51.2-40.96 94.72-81.92 122.88l-2.56 2.56c-10.24 7.68-23.04 12.8-33.28 17.92-5.12 2.56-10.24 5.12-17.92 5.12-5.12 2.56-10.24 2.56-17.92 2.56h-2.56c-5.12 0-10.24 2.56-15.36 2.56h-35.84c-2.56 0-5.12 0-7.68-2.56-2.56 0-5.12 0-10.24-2.56-35.84-7.68-69.12-25.6-97.28-53.76-35.84-35.84-56.32-84.48-53.76-135.68 0-61.44 30.72-115.2 79.36-151.04 7.68-5.12 10.24-12.8 10.24-20.48 0-5.12-2.56-10.24-5.12-15.36-5.12-5.12-10.24-10.24-17.92-10.24h-5.12c-5.12 0-10.24 2.56-15.36 5.12-23.04 17.92-43.52 38.4-58.88 61.44-53.76 79.36-58.88 186.88-2.56 273.92 35.84 53.76 89.6 89.6 148.48 104.96 17.92 5.12 35.84 7.68 53.76 7.68h20.48c7.68 0 12.8-2.56 20.48-2.56h2.56c7.68 0 12.8-2.56 20.48-5.12h2.56c7.68-2.56 12.8-5.12 20.48-5.12h2.56c7.68-2.56 12.8-5.12 17.92-7.68 0 0 2.56 0 2.56-2.56 7.68-2.56 12.8-7.68 20.48-10.24 66.56-61.44 110.08-135.68 115.2-220.16z" fill="#ffd300" /></svg>