<?xml version="1.0" standalone="no"?><!DOCTYPE svg PUBLIC "-//W3C//DTD SVG 1.1//EN" "http://www.w3.org/Graphics/SVG/1.1/DTD/svg11.dtd"><svg class="icon" width="200px" height="200.00px" viewBox="0 0 1024 1024" version="1.1" xmlns="http://www.w3.org/2000/svg"><path d="M521.32571469 959.56571469H193.89714313C105.57714312 959.42857156 70.05714313 923.56571469 70.05714313 834.97142844V340.29714313c0-78.03428531 37.57714313-116.57142844 115.95428531-116.70857157 208.93714313-0.48 439.68-0.54857156 648.61714312 0 80.43428531 0.27428531 119.24571469 40.11428531 119.31428531 119.86285688v497.28c-0.13714313 81.05142844-37.44 118.49142844-119.31428531 118.76571469-104.36571469 0.34285688-208.8 0-313.30285687 0z m317.34857062-43.54285781c52.45714313 0 71.24571469-19.2 71.31428625-72V339.06285687c0-52.93714312-18.78857156-72.13714312-71.17714312-72.20571374h-653.48571375c-52.45714313 0-71.24571469 19.26857156-71.31428625 72.06857156v504.82285687c0 52.86857156 18.78857156 72 71.17714312 72.13714313 104.36571469 0.20571469 230.67428531 0.06857156 335.10857157 0.06857062 106.14857156 0 212.22857156 0.13714313 318.37714218 0zM227.29142844 102.62857156c-17.96571469 0-37.71428531-0.89142844-37.02857157-19.81714312 0.54857156-17.14285687 20.02285688-18.30857156 36.48-18.37714313C344.20571469 64.22857156 681.23428531 64.22857156 798.62857156 64.43428531c17.82857156 0 37.44 1.30285687 36.82285688 20.36571469-0.61714313 17.96571469-19.61142844 17.76-36.20571375 17.76-59.24571469 0.13714313-398.05714313 0-457.23428625 0H227.29142844z m-31.54285688 63.49714313l-51.56571469 94.14857062c-4.25142844 7.74857156-8.36571469 15.77142844-13.78285687 22.76571469-7.95428531 10.21714312-18.85714313 15.77142844-30.72 9.6-13.16571469-6.78857156-16.25142844-20.29714313-9.6-32.77714312 62.81142844-115.88571469 36.61714313-67.88571469 100.25142844-183.15428532 6.24-11.38285687 17.96571469-15.77142844 30.24-9.46285687 13.64571469 7.06285687 15.77142844 19.88571469 9.87428625 32.70857062-9.53142844 20.57142844-20.77714313 40.45714313-31.68 60.48-20.70857156 38.33142844 17.89714312-32.64-3.01714313 5.69142938z m627.90857156-5.69142938c-10.90285687-20.09142844-22.14857156-39.90857156-31.61142843-60.54857062-5.89714313-12.89142844-3.84-25.64571469 9.80571375-32.64 12.34285687-6.30857156 24-1.92 30.24 9.39428531 63.70285688 115.40571469 37.44 67.33714312 100.18285687 183.15428531 6.85714313 12.54857156 3.70285688 26.05714312-9.53142844 32.77714313-11.86285688 6.17142844-22.76571469 0.61714313-30.72-9.6-5.41714312-6.92571469-9.53142844-15.01714313-13.78285687-22.76571375l-51.56571469-94.14857156c-20.91428531-38.26285687 17.69142844 32.70857156-3.01714219-5.69142844z m-599.45142843-27.36h18.72v69.87428625h-18.72V133.07428531z m553.02857062 0h18.78857156v69.87428625h-18.78857156V133.07428531z m-553.02857062 155.65714313h18.72v369.87428625h-18.72V288.73142844z m553.02857062 0h18.78857156v100.8h-18.78857156v-100.8z m112.11428625 643.74857156l19.40571375-19.47428531-123.90857062-213.25714313-22.14857157 13.23428532 126.65142844 219.49714312z m-672.34285687-162.51428531l-22.08-13.30285782-97.16571469 156.34285782 19.40571469 19.47428531 99.90857062-162.51428531z m560.22857062-279.36h18.78857156v212.98285687h-18.78857156V490.60571469zM318.28571469 703.72571469h477.73714218v18.78857062H318.28571469v-18.78857062z m-74.4 53.00571375l205.71428531-184.45714313 94.83428531 93.87428625 233.76-199.61142844V419.42857156l-233.82857062 199.54285688-94.69714313-93.80571375-205.78285687 184.45714219v46.97142843z" fill="#ffd300" /></svg>