<svg xmlns="http://www.w3.org/2000/svg" xmlns:xlink="http://www.w3.org/1999/xlink" viewBox="0 0 137.6 162.59"><defs><style>.cls-1,.cls-10,.cls-11,.cls-12,.cls-13,.cls-14,.cls-15,.cls-16,.cls-17,.cls-18,.cls-19,.cls-2,.cls-20,.cls-21,.cls-22,.cls-3,.cls-4,.cls-5,.cls-6,.cls-7,.cls-8,.cls-9{fill:none;stroke-miterlimit:10;}.cls-1{stroke:#feda00;stroke-width:1.79px;}.cls-2{stroke:#fedc01;stroke-width:1.73px;}.cls-3{stroke:#fedd0a;stroke-width:1.66px;}.cls-4{stroke:#ffde14;stroke-width:1.59px;}.cls-5{stroke:#fedf1e;stroke-width:1.53px;}.cls-6{stroke:#fee025;stroke-width:1.46px;}.cls-7{stroke:#fee12f;stroke-width:1.4px;}.cls-8{stroke:#fee235;stroke-width:1.33px;}.cls-9{stroke:#fee341;stroke-width:1.27px;}.cls-10{stroke:#fee449;stroke-width:1.2px;}.cls-11{stroke:#fee450;stroke-width:1.14px;}.cls-12{stroke:#fee558;stroke-width:1.07px;}.cls-13{stroke:#fee65f;stroke-width:1.01px;}.cls-14{stroke:#fee869;stroke-width:0.94px;}.cls-15{stroke:#fee970;stroke-width:0.88px;}.cls-16{stroke:#fde978;stroke-width:0.81px;}.cls-17{stroke:#feea7e;stroke-width:0.74px;}.cls-18{stroke:#feec87;stroke-width:0.68px;}.cls-19{stroke:#feec8e;stroke-width:0.61px;}.cls-20{stroke:#ffee96;stroke-width:0.55px;}.cls-21{stroke:#ffef9e;stroke-width:0.48px;}.cls-22{stroke:#fff0a7;stroke-width:0.42px;}.cls-23{opacity:0.8;isolation:isolate;fill:url(#linear-gradient);}</style><linearGradient id="linear-gradient" x1="49.94" y1="-250.4" x2="87.67" y2="-250.4" gradientTransform="matrix(1, 0, 0, -1, 0, -201.24)" gradientUnits="userSpaceOnUse"><stop offset="0" stop-color="#fff" stop-opacity="0"/><stop offset="0.5" stop-color="#fff"/><stop offset="1" stop-color="#fff" stop-opacity="0"/></linearGradient></defs><title>Asset 3</title><g id="Layer_2" data-name="Layer 2"><g id="Layer_1-2" data-name="Layer 1"><circle class="cls-1" cx="68.8" cy="93.73" r="4.54"/><circle class="cls-2" cx="68.8" cy="93.73" r="7.58"/><circle class="cls-3" cx="68.8" cy="93.73" r="10.63"/><circle class="cls-4" cx="68.8" cy="93.73" r="13.67"/><circle class="cls-5" cx="68.8" cy="93.73" r="16.72"/><circle class="cls-6" cx="68.8" cy="93.73" r="19.76"/><circle class="cls-7" cx="68.8" cy="93.73" r="22.86"/><circle class="cls-8" cx="68.8" cy="93.73" r="25.91"/><circle class="cls-9" cx="68.8" cy="93.73" r="28.95"/><circle class="cls-10" cx="68.8" cy="93.73" r="32"/><circle class="cls-11" cx="68.8" cy="93.73" r="35.04"/><circle class="cls-12" cx="68.8" cy="93.73" r="38.09"/><circle class="cls-13" cx="68.8" cy="93.79" r="41.13"/><circle class="cls-14" cx="68.8" cy="93.79" r="44.18"/><circle class="cls-15" cx="68.8" cy="93.79" r="47.22"/><circle class="cls-16" cx="68.8" cy="93.79" r="50.27"/><circle class="cls-17" cx="68.8" cy="93.79" r="53.37"/><circle class="cls-18" cx="68.8" cy="93.79" r="56.41"/><circle class="cls-19" cx="68.8" cy="93.79" r="59.46"/><circle class="cls-20" cx="68.8" cy="93.79" r="62.5"/><circle class="cls-21" cx="68.8" cy="93.79" r="65.55"/><circle class="cls-22" cx="68.8" cy="93.79" r="68.59"/><path class="cls-23" d="M87.67,0S78.83,58,73.22,94.5a4.5,4.5,0,0,1-8.9,0L49.94,0"/></g></g></svg>