<?xml version="1.0" standalone="no"?><!DOCTYPE svg PUBLIC "-//W3C//DTD SVG 1.1//EN" "http://www.w3.org/Graphics/SVG/1.1/DTD/svg11.dtd"><svg t="1559250292846" class="icon" style="" viewBox="0 0 1024 1024" version="1.1" xmlns="http://www.w3.org/2000/svg" p-id="4139" xmlns:xlink="http://www.w3.org/1999/xlink" width="200" height="200"><defs><style type="text/css"></style></defs><path d="M631.8 944.8c0 8.2-6.7 15-15 15H407.6c-8.2 0-15-6.7-15-15 0-8.2 6.7-15 15-15h209.2c8.3 0.1 15 6.8 15 15zM208.1 372.4c-8.2 19.4-30.6 28.4-50.1 20.2l-39.6-17.1C99 367.3 90 344.9 98.2 325.4s30.6-28.4 50.1-20.2l39.6 17.1c19.5 8.3 28.4 30.7 20.2 50.1z m-32.9-26.9l-32.9-15.8c-6.7-3-15 0-17.9 6.7-3 6.7 0 15 6.7 17.9L164 370c6.7 3 15 0 17.9-6.7 2.3-6.5 0.1-14.8-6.7-17.8z m298.9-200.2V102c0-20.9 17.1-38.2 38.1-38.2 20.9 0 38.1 17.2 38.1 38.2v43.3c0 20.9-17.1 38.1-38.1 38.1-20.9-0.1-38.1-17.2-38.1-38.1z m24.7-3c0 7.4 6 13.5 13.5 13.5 7.4 0 13.5-5.9 13.5-13.5v-35.9c0-7.4-6-13.5-13.5-13.5-7.4 0-13.5 5.9-13.5 13.5v35.9zM696 181.1l22.4-36.6c11.2-17.9 34.4-23.9 52.3-12.7s23.9 34.4 12.7 52.3L761 220.7c-11.2 17.9-34.4 23.9-52.3 12.7-17.8-11.1-23.1-33.6-12.7-52.3z m27 29.2c5.9 4.5 14.2 2.3 18.7-3.8l20.2-29.9c4.5-6 2.3-14.2-3.8-18.7-6-4.5-14.2-2.3-18.7 3.8l-20.2 29.9c-3.7 6.7-2.2 14.9 3.8 18.7z m-76.2 659.8H378.5c-8.2 0-15 6.7-15 15s6.7 15 15 15h268.3c8.2 0 15-6.7 15-15s-6.1-15-15-15zM226 184.1c-11.2-17.9-5.3-41.8 12.7-52.3s41.8-5.3 52.3 12.7l22.4 36.6c11.2 17.9 5.3 41.8-12.7 52.3s-41.8 5.3-52.3-12.7L226 184.1z m21.7-8.2l20.9 29.9c4.5 5.9 12.7 7.4 18.7 3 6-4.5 7.4-12.7 3-18.7l-20.9-29.9c-4.5-5.9-12.7-7.4-18.7-3-5.2 3.7-6.8 12.7-3 18.7z m435.5 213.6c-5.2-8.1-33.7-41.7-67.4-62.3-34.6-21.4-66.2-29.8-79.9-31.8-13.6-1.8-17.6-1.2-21.4 4.5-3.9 5.9-0.3 16.1 8.4 17.9 8.7 1.8 43.2 14.3 72.6 32.2 29.4 17.9 61.4 51 68.3 58.2 6.9 8.1 17.6 8.8 21.1 2.6 4.4-5.4 3.4-14.2-1.7-21.3z m224.3-13.3l-39.6 17.1c-19.4 8.2-41.8-0.7-50.1-20.2-8.2-19.4 0.8-41.8 20.2-50.1l39.6-17.1c19.4-8.2 41.8 0.8 50.1 20.2 8.3 19.4-0.7 41.8-20.2 50.1z m-7.4-39.7c-3-6.7-11.2-9.7-17.9-6.7l-32.9 15.8c-6.7 3-9.7 11.2-6.7 17.9 3 6.7 11.2 9.7 17.9 6.7l32.9-15.7c6.7-3 9.7-11.2 6.7-18z m-90 176.2c0 110.6-60.6 207.7-150.2 259.3v50c0 10.5-8.9 19.4-19.4 19.4H381.1c-10.5 0-19.4-8.9-19.4-19.4v-50.8C272.8 719.7 213 623.3 213 512.7c0-165.1 133.8-298.9 298.9-298.9 165.2 0 298.2 133.8 298.2 298.9z m-28-0.5c0-148.7-120.3-269-269.1-269s-269.1 120.3-269.1 269c0 93.5 47.1 174.8 118.8 223.5 9.7 6.7 19.4 12.7 29.9 17.9v51.5c0 3.8 6.7 6.7 15 6.7h208.5c8.2 0 15-3 15-6.7v-50.8c10.5-5.3 20.9-11.2 30.6-17.1 72.5-49.4 120.4-131.6 120.4-225z m-72-68.6c-7.4 4.1-6.5 14.4-3.4 22.2 3.5 9 9.6 24.5 12.2 34.6 1.8 7.1 9.3 14.7 18.2 12.3 8.3-2.3 9.4-10.1 8.2-18.6-1.8-13.6-6.8-29-14.6-41.4-5.3-8.2-9.1-13.1-20.6-9.1z" p-id="4140" fill="#ffd300"></path></svg>