<?xml version="1.0" standalone="no"?><!DOCTYPE svg PUBLIC "-//W3C//DTD SVG 1.1//EN" "http://www.w3.org/Graphics/SVG/1.1/DTD/svg11.dtd"><svg t="1559250896391" class="icon" style="" viewBox="0 0 1024 1024" version="1.1" xmlns="http://www.w3.org/2000/svg" p-id="5347" xmlns:xlink="http://www.w3.org/1999/xlink" width="200" height="200"><defs><style type="text/css"></style></defs><path d="M833.7408 119.3472l-290.816 290.816-8.192 86.4256 86.3744-8.192 290.816-290.816-78.1824-78.2336z m27.136-81.408l132.5056 132.4544a38.4 38.4 0 0 1 0 54.3232L665.6 552.4992a38.4 38.4 0 0 1-23.552 11.0592l-146.2784 13.824a38.4 38.4 0 0 1-41.8304-41.8304l13.824-146.3296a38.4 38.4 0 0 1 11.008-23.552L806.5536 37.888a38.4 38.4 0 0 1 54.3232 0zM780.8 934.4v-377.856a38.4 38.4 0 1 1 76.8 0V972.8a38.4 38.4 0 0 1-38.4 38.4H51.2A38.4 38.4 0 0 1 12.8 972.8V153.6A38.4 38.4 0 0 1 51.2 115.2h527.0016a38.4 38.4 0 1 1 0 76.8H89.6v742.4h691.2zM197.7344 596.0704a38.4 38.4 0 1 1 0-76.8H384a38.4 38.4 0 0 1 0 76.8H197.7344zM204.8 806.4a38.4 38.4 0 1 1 0-76.8h460.8a38.4 38.4 0 1 1 0 76.8H204.8z" p-id="5348" fill="#ffd300"></path></svg>