<?xml version="1.0" standalone="no"?><!DOCTYPE svg PUBLIC "-//W3C//DTD SVG 1.1//EN" "http://www.w3.org/Graphics/SVG/1.1/DTD/svg11.dtd"><svg t="1559250309287" class="icon" style="" viewBox="0 0 1094 1024" version="1.1" xmlns="http://www.w3.org/2000/svg" p-id="4360" xmlns:xlink="http://www.w3.org/1999/xlink" width="213.671875" height="200"><defs><style type="text/css"></style></defs><path d="M481.597793 464.790069c79.236414-66.736552 188.204138-66.736552 257.518345-8.333241 9.922207 16.701793 9.922207 25.035034 0 33.368275 0 8.333241 0 8.333241-9.886897 8.333242h-9.886896c-59.462621-50.034759-138.699034-50.034759-198.126345 0-19.809103 8.368552-29.73131 8.368552-39.618207 0-9.886897-16.666483-9.886897-24.999724 0-33.368276zM352.644414 95.832276c65.430069 0 121.538207 51.588414 121.538207 113.522758 0 61.899034-46.750897 113.487448-112.180966 113.487449H268.535172c-65.430069 0-112.145655-51.588414-112.145655-113.487449 0-61.934345 46.715586-113.522759 112.145655-113.522758h84.109242z m501.053793 607.691034l183.190069 176.904828c27.471448 27.930483 27.471448 74.504828 0 102.43531a71.044414 71.044414 0 0 1-100.775724 0l-174.00938-176.904827c-45.797517 27.895172-91.595034 37.217103-146.537931 37.217103a281.776552 281.776552 0 0 1-201.516138-83.826758c-45.797517-55.860966-82.449655-130.365793-82.449655-204.870621 0-37.252414 9.18069-65.182897 18.326069-102.4H240.004414C120.937931 452.043034 20.162207 349.572414 20.162207 228.528552c0-121.079172 100.775724-223.514483 219.842207-223.514483h604.513103c119.066483 0 219.842207 102.43531 219.842207 223.514483 0 111.721931-91.595034 204.870621-192.370758 214.157241 9.18069 37.252414 18.361379 74.504828 18.361379 111.757241 0 55.896276-9.18069 102.43531-36.652138 149.009656z m-613.693793-316.663172h146.537931l27.506758-27.930483a316.204138 316.204138 0 0 1 183.190069-93.148689c82.414345 0 146.537931 27.965793 201.480828 83.826758 9.18069 18.643862 18.361379 27.930483 27.471448 37.252414h9.18069c91.595034 0 155.718621-74.504828 155.718621-158.296276 0-83.826759-64.123586-158.331586-146.537931-158.331586H239.969103c-91.595034 0-155.718621 74.504828-155.71862 158.331586 0 83.791448 64.123586 158.296276 155.71862 158.296276z m219.842207 325.914483c82.414345 93.14869 219.806897 93.14869 311.437241 0 36.616828-46.539034 64.088276-102.4 64.088276-158.296276 0-55.860966-27.471448-121.043862-64.123586-158.296276-45.797517-37.252414-100.740414-65.182897-155.718621-65.182897-64.088276 0-119.066483 18.608552-155.718621 65.182897-36.616828 46.539034-64.088276 102.4-64.088276 158.296276 0 65.182897 18.326069 121.079172 64.123587 158.331586z" p-id="4361" fill="#ffd300"></path></svg>