<?xml version="1.0" encoding="UTF-8"?>
<svg width="150px" height="71px" viewBox="0 0 150 71" version="1.1" xmlns="http://www.w3.org/2000/svg" xmlns:xlink="http://www.w3.org/1999/xlink">
    <!-- Generator: Sketch 55 (78076) - https://sketchapp.com -->
    <title>Group</title>
    <desc>Created with Sketch.</desc>
    <defs>
        <polygon id="path-1" points="0.001 0.2098 51.9427 0.2098 51.9427 61.9998 0.001 61.9998"></polygon>
        <polygon id="path-3" points="0 0.885873534 62.13 0.885873534 62.13 62.9996686 0 62.9996686"></polygon>
    </defs>
    <g id="Page-1" stroke="none" stroke-width="1" fill="none" fill-rule="evenodd">
        <g id="Group">
            <g id="Group-6" transform="translate(0.000000, 7.000000)">
                <path d="M46.719,0.6014 C47.095,0.2254 47.546,0.0004 48.071,0.0004 C48.598,0.0004 49.049,0.1884 49.425,0.6014 C49.802,0.9774 49.988,1.4664 49.988,2.0294 C49.988,2.5924 49.802,3.0814 49.425,3.4574 C49.049,3.8344 48.598,4.0594 48.071,4.0594 C47.546,4.0594 47.095,3.8714 46.719,3.4574 C46.343,3.0814 46.156,2.5924 46.156,2.0294 C46.156,1.4664 46.343,0.9774 46.719,0.6014 L46.719,0.6014 Z M46.945,3.2694 C47.245,3.6084 47.62,3.7584 48.071,3.7584 C48.524,3.7584 48.898,3.6084 49.199,3.2694 C49.499,2.9314 49.651,2.5184 49.651,2.0674 C49.651,1.5794 49.499,1.2024 49.199,0.8644 C48.898,0.5254 48.524,0.3754 48.071,0.3754 C47.62,0.3754 47.245,0.5254 46.945,0.8644 C46.643,1.2024 46.493,1.5794 46.493,2.0674 C46.493,2.5184 46.643,2.9314 46.945,3.2694 L46.945,3.2694 Z M47.697,3.1574 L47.282,3.1574 L47.282,0.8644 L48.035,0.8644 C48.298,0.8644 48.524,0.9394 48.674,1.0524 C48.824,1.1644 48.898,1.3524 48.898,1.5794 C48.898,1.6914 48.861,1.8034 48.824,1.8794 C48.786,1.9544 48.674,2.0294 48.56,2.1054 C48.674,2.1424 48.748,2.2174 48.824,2.3304 C48.861,2.4424 48.898,2.5564 48.898,2.6684 L48.898,2.8184 L48.898,3.0074 C48.898,3.0814 48.898,3.1194 48.936,3.1574 L48.936,3.1954 L48.524,3.1954 C48.524,3.1574 48.486,3.1194 48.486,3.0454 L48.486,2.8184 L48.486,2.6684 C48.486,2.5564 48.448,2.4424 48.41,2.3684 C48.335,2.2924 48.26,2.2924 48.109,2.2924 L47.697,2.2924 L47.697,3.1574 Z M48.109,1.8794 C48.223,1.8794 48.335,1.8414 48.41,1.8034 C48.486,1.7294 48.524,1.6534 48.524,1.5794 C48.524,1.4284 48.486,1.3524 48.41,1.3164 C48.335,1.2784 48.223,1.2404 48.035,1.2404 L47.697,1.2404 L47.697,1.9174 L48.109,1.9174 L48.109,1.8794 Z" id="Fill-1" fill="#FDD205"></path>
                <g id="Group-5" transform="translate(0.000000, 0.729600)">
                    <mask id="mask-2" fill="white">
                        <use xlink:href="#path-1"></use>
                    </mask>
                    <g id="Clip-4"></g>
                    <path d="M37.5857,39.9748 L37.2847,40.0868 C44.9517,37.0808 50.4017,29.6008 50.4017,20.8828 C50.4017,9.4928 41.1187,0.2098 29.7307,0.2098 L0.0007,0.2098 L0.0007,1.2248 L29.7307,1.2248 C40.5547,1.2248 49.3867,10.0578 49.3867,20.8828 C49.3867,31.7058 40.5927,40.5018 29.7307,40.5018 L15.8987,40.5018 L15.8987,39.8248 L29.7307,39.8248 C40.1797,39.8248 48.7107,31.3308 48.7107,20.8448 C48.7107,10.3958 40.2157,1.8648 29.7307,1.8648 L0.0007,1.8648 L0.0007,2.9158 L29.7307,2.9158 C39.6147,2.9158 47.6957,10.9588 47.6957,20.8828 C47.6957,30.7668 39.6527,38.8478 29.7307,38.8478 L15.8987,38.8478 L15.8987,38.1698 L29.7307,38.1698 C39.2767,38.1698 47.0187,30.4278 47.0187,20.8828 C47.0187,11.3358 39.2767,3.5928 29.7307,3.5928 L0.0007,3.5928 L0.0007,4.6068 L29.7307,4.6068 C38.7127,4.6068 46.0047,11.8988 46.0047,20.8828 C46.0047,29.8648 38.7127,37.1568 29.7307,37.1568 L15.8987,37.1568 L15.8987,36.4418 L29.7307,36.4418 C38.2987,36.4418 45.2897,29.4508 45.2897,20.8828 C45.2897,12.3128 38.2987,5.3218 29.7307,5.3218 L0.0007,5.3218 L0.0007,6.2998 L29.7307,6.2998 C37.7357,6.2998 44.2757,12.8378 44.2757,20.8448 C44.2757,28.8498 37.7357,35.3898 29.7307,35.3898 L15.8987,35.3898 L15.8987,34.6388 L29.7307,34.6388 C37.3597,34.6388 43.5247,28.4368 43.5247,20.8448 C43.5247,13.2528 37.3597,7.0508 29.7307,7.0508 L0.0007,7.0508 L0.0007,8.0648 L29.7307,8.0648 C36.7957,8.0648 42.5467,13.8158 42.5467,20.8828 C42.5467,27.9478 36.7957,33.6988 29.7307,33.6988 L15.8987,33.6988 L15.8987,32.9458 L29.7307,32.9458 C36.3837,32.9458 41.7947,27.5348 41.7947,20.8828 C41.7947,14.2298 36.3837,8.8178 29.7307,8.8178 L0.0007,8.8178 L0.0007,9.8308 L29.7307,9.8308 C35.8187,9.8308 40.7807,14.7928 40.7807,20.8828 C40.7807,26.9708 35.8187,31.9328 29.7307,31.9328 L15.8987,31.9328 L15.8987,31.2928 L29.7307,31.2928 C35.4807,31.2928 40.1417,26.6318 40.1417,20.8828 C40.1417,15.1318 35.4807,10.4708 29.7307,10.4708 L0.0007,10.4708 L0.0007,11.4858 L29.7307,11.4858 C34.9177,11.4858 39.1267,15.6948 39.1267,20.8828 C39.1267,26.0688 34.9177,30.2778 29.7307,30.2778 L15.8987,30.2778 L15.8987,29.6008 L29.7307,29.6008 C34.5407,29.6008 38.4507,25.6928 38.4507,20.8828 C38.4507,16.0708 34.5407,12.1628 29.7307,12.1628 L0.0007,12.1628 L0.0007,13.1768 L29.7307,13.1768 C33.9777,13.1768 37.4357,16.6338 37.4357,20.8828 C37.4357,25.1288 33.9777,28.5868 29.7307,28.5868 L15.8987,28.5868 L15.8987,27.9098 L29.7307,27.9098 C33.6017,27.9098 36.7587,24.7528 36.7587,20.8828 C36.7587,17.0108 33.6017,13.8538 29.7307,13.8538 L0.0007,13.8538 L0.0007,14.8678 L29.7307,14.8678 C33.0387,14.8678 35.7447,17.5738 35.7447,20.8828 C35.7447,24.1898 33.0387,26.8958 29.7307,26.8958 L15.8987,26.8958 L15.8987,15.5068 L0.0007,15.5068 L0.0007,61.9998 L15.8987,61.9998 L15.8987,41.5158 L19.4327,41.5158 L32.6617,61.9998 L51.9427,61.9998 L37.5857,39.9748 Z" id="Fill-3" fill="#FDD205" mask="url(#mask-2)"></path>
                </g>
            </g>
            <g id="Group-8" transform="translate(87.000000, 0.000000)">
                <g id="Group-3" transform="translate(0.000000, 7.695100)">
                    <mask id="mask-4" fill="white">
                        <use xlink:href="#path-3"></use>
                    </mask>
                    <g id="Clip-2"></g>
                    <path d="M35.8849,27.017 C35.1229,27.205 34.3679,27.391 33.6019,27.582 C33.7179,28.085 33.8359,28.575 33.9409,29.067 C34.3889,31.144 34.7419,33.235 34.7689,35.367 C34.7799,36.286 34.7279,37.202 34.4559,38.09 C34.3849,38.322 34.2789,38.544 34.1719,38.763 C33.8269,39.472 33.0609,39.554 32.5389,39.352 C32.1219,39.191 31.7999,38.9 31.5079,38.574 C30.9089,37.906 30.4769,37.131 30.0969,36.326 C29.2229,34.473 28.5799,32.533 28.0639,30.557 C27.2849,27.566 26.5369,24.568 25.8089,21.566 C25.1929,19.026 24.6069,16.479 24.0399,13.928 C23.6049,11.968 23.2579,9.99 23.0219,7.995 C22.8669,6.68 22.7589,5.361 22.8699,4.034 C22.9199,3.446 23.0049,2.863 23.2579,2.318 C23.4249,1.96 23.6609,1.706 24.0799,1.663 C24.2509,1.646 24.4169,1.581 24.5879,1.564 C24.9449,1.529 25.2569,1.659 25.5309,1.877 C26.0719,2.308 26.4639,2.862 26.8029,3.454 C27.5009,4.676 27.9919,5.986 28.4059,7.324 C28.7079,8.296 28.9639,9.282 29.2389,10.261 C29.2589,10.328 29.2769,10.396 29.2989,10.474 C30.0669,10.285 30.8209,10.097 31.5959,9.905 C31.4499,9.354 31.3159,8.819 31.1669,8.288 C30.7049,6.629 30.1809,4.991 29.4519,3.426 C29.0709,2.608 28.6319,1.826 28.0839,1.106 C28.0699,1.088 28.0599,1.068 28.0299,1.02 C28.4649,0.987 28.8779,0.938 29.2909,0.927 C30.2139,0.905 31.1389,0.902 32.0619,0.886 C32.2079,0.883 32.2669,0.933 32.3019,1.076 C33.5079,5.929 34.7179,10.781 35.9279,15.633 C37.4249,21.635 38.9209,27.636 40.4169,33.638 C40.8289,35.29 41.2419,36.942 41.6539,38.594 C41.6699,38.663 41.6899,38.73 41.7149,38.821 C42.4769,38.632 43.2309,38.444 44.0079,38.251 C40.9189,25.863 37.8329,13.489 34.7409,1.086 C35.1469,1.142 35.5309,1.187 35.9109,1.248 C37.2479,1.46 38.5669,1.755 39.8649,2.134 C39.9989,2.173 40.0689,2.232 40.1029,2.375 C41.4629,7.847 42.8289,13.316 44.1919,18.788 C45.7089,24.87 47.2259,30.953 48.7409,37.036 C48.7459,37.052 48.7559,37.067 48.7759,37.113 C49.5309,36.927 50.2879,36.739 51.0599,36.547 C48.2839,25.415 45.5129,14.298 42.7279,3.13 C47.9529,5.292 52.2809,8.567 55.7049,13.019 C59.1299,17.472 61.2099,22.496 61.8919,28.073 C63.7569,43.327 54.4859,56.879 40.9179,61.392 C27.0869,65.993 12.0019,60.477 4.4519,47.932 C-2.9651,35.604 -0.5221,20.925 7.4129,11.831 C10.1929,22.973 12.9679,34.101 15.7469,45.251 C16.5159,45.058 17.2739,44.869 18.0449,44.677 C16.3199,37.757 14.5989,30.857 12.8739,23.938 C14.4389,23.547 15.9919,23.161 17.5729,22.766 C19.2979,29.678 21.0189,36.58 22.7449,43.503 C23.5129,43.313 24.2659,43.125 25.0409,42.931 C24.9549,42.579 24.8729,42.241 24.7879,41.901 C22.8359,34.069 20.8819,26.236 18.9289,18.404 C17.8289,13.995 16.7309,9.588 15.6289,5.181 C15.6039,5.078 15.5789,5.003 15.7059,4.931 C17.2599,4.056 18.8719,3.305 20.5519,2.705 C20.5799,2.695 20.6079,2.686 20.6589,2.671 C20.6299,2.881 20.5909,3.077 20.5749,3.275 C20.5339,3.79 20.4829,4.308 20.4699,4.825 C20.4349,6.167 20.5669,7.499 20.7439,8.829 C21.2429,12.613 22.1009,16.327 22.9939,20.033 C23.7279,23.083 24.4689,26.131 25.2339,29.174 C25.8099,31.46 26.4609,33.727 27.3389,35.92 C27.8649,37.24 28.4719,38.519 29.3349,39.661 C29.8539,40.347 30.4599,40.939 31.2279,41.349 C32.9679,42.281 35.4139,41.888 36.4589,39.501 C36.8189,38.681 36.9929,37.813 37.0719,36.924 C37.2619,34.809 37.0259,32.72 36.6579,30.644 C36.4489,29.473 36.1749,28.313 35.9279,27.148 C35.9199,27.109 35.9039,27.071 35.8849,27.017 M53.3869,43.315 C53.3869,42.414 52.6529,41.676 51.7509,41.673 C50.8429,41.669 50.0979,42.412 50.0979,43.318 C50.0989,44.218 50.8359,44.958 51.7359,44.961 C52.6459,44.965 53.3879,44.225 53.3869,43.315" id="Fill-1" fill="#FDD205" mask="url(#mask-4)"></path>
                </g>
                <path d="M17.0011,28.1638 C15.4241,28.5578 13.8741,28.9438 12.3021,29.3358 C12.2031,28.9398 12.1061,28.5558 12.0101,28.1708 C11.1311,24.6428 10.2521,21.1148 9.3711,17.5858 C9.3451,17.4888 9.3511,17.4248 9.4271,17.3508 C10.6581,16.1578 11.9771,15.0708 13.3851,14.0958 C13.4091,14.0798 13.4351,14.0668 13.4801,14.0418 C14.6531,18.7528 15.8261,23.4498 17.0011,28.1638" id="Fill-4" fill="#FDD205"></path>
                <path d="M32.0055,3.2966 C31.0975,3.2976 30.3555,2.5586 30.3535,1.6526 C30.3525,0.7486 31.0975,0.0026 32.0015,0.0006 C32.9085,-0.0004 33.6465,0.7376 33.6495,1.6486 C33.6505,2.5606 32.9195,3.2956 32.0055,3.2966" id="Fill-6" fill="#FDD205"></path>
            </g>
        </g>
    </g>
</svg>