<?xml version="1.0" encoding="UTF-8"?>
<svg width="52px" height="63px" viewBox="0 0 52 63" version="1.1" xmlns="http://www.w3.org/2000/svg" xmlns:xlink="http://www.w3.org/1999/xlink">
    <!-- Generator: Sketch 55 (78076) - https://sketchapp.com -->
    <title>Group 6</title>
    <desc>Created with Sketch.</desc>
    <defs>
        <polygon id="path-1" points="0.001 0.2098 51.9427 0.2098 51.9427 61.9998 0.001 61.9998"></polygon>
    </defs>
    <g id="Page-1" stroke="none" stroke-width="1" fill="none" fill-rule="evenodd">
        <g id="Group-6">
            <path d="M46.719,0.6014 C47.095,0.2254 47.546,0.0004 48.071,0.0004 C48.598,0.0004 49.049,0.1884 49.425,0.6014 C49.802,0.9774 49.988,1.4664 49.988,2.0294 C49.988,2.5924 49.802,3.0814 49.425,3.4574 C49.049,3.8344 48.598,4.0594 48.071,4.0594 C47.546,4.0594 47.095,3.8714 46.719,3.4574 C46.343,3.0814 46.156,2.5924 46.156,2.0294 C46.156,1.4664 46.343,0.9774 46.719,0.6014 L46.719,0.6014 Z M46.945,3.2694 C47.245,3.6084 47.62,3.7584 48.071,3.7584 C48.524,3.7584 48.898,3.6084 49.199,3.2694 C49.499,2.9314 49.651,2.5184 49.651,2.0674 C49.651,1.5794 49.499,1.2024 49.199,0.8644 C48.898,0.5254 48.524,0.3754 48.071,0.3754 C47.62,0.3754 47.245,0.5254 46.945,0.8644 C46.643,1.2024 46.493,1.5794 46.493,2.0674 C46.493,2.5184 46.643,2.9314 46.945,3.2694 L46.945,3.2694 Z M47.697,3.1574 L47.282,3.1574 L47.282,0.8644 L48.035,0.8644 C48.298,0.8644 48.524,0.9394 48.674,1.0524 C48.824,1.1644 48.898,1.3524 48.898,1.5794 C48.898,1.6914 48.861,1.8034 48.824,1.8794 C48.786,1.9544 48.674,2.0294 48.56,2.1054 C48.674,2.1424 48.748,2.2174 48.824,2.3304 C48.861,2.4424 48.898,2.5564 48.898,2.6684 L48.898,2.8184 L48.898,3.0074 C48.898,3.0814 48.898,3.1194 48.936,3.1574 L48.936,3.1954 L48.524,3.1954 C48.524,3.1574 48.486,3.1194 48.486,3.0454 L48.486,2.8184 L48.486,2.6684 C48.486,2.5564 48.448,2.4424 48.41,2.3684 C48.335,2.2924 48.26,2.2924 48.109,2.2924 L47.697,2.2924 L47.697,3.1574 Z M48.109,1.8794 C48.223,1.8794 48.335,1.8414 48.41,1.8034 C48.486,1.7294 48.524,1.6534 48.524,1.5794 C48.524,1.4284 48.486,1.3524 48.41,1.3164 C48.335,1.2784 48.223,1.2404 48.035,1.2404 L47.697,1.2404 L47.697,1.9174 L48.109,1.9174 L48.109,1.8794 Z" id="Fill-1" fill="#FDD205"></path>
            <g id="Group-5" transform="translate(0.000000, 0.729600)">
                <mask id="mask-2" fill="white">
                    <use xlink:href="#path-1"></use>
                </mask>
                <g id="Clip-4"></g>
                <path d="M37.5857,39.9748 L37.2847,40.0868 C44.9517,37.0808 50.4017,29.6008 50.4017,20.8828 C50.4017,9.4928 41.1187,0.2098 29.7307,0.2098 L0.0007,0.2098 L0.0007,1.2248 L29.7307,1.2248 C40.5547,1.2248 49.3867,10.0578 49.3867,20.8828 C49.3867,31.7058 40.5927,40.5018 29.7307,40.5018 L15.8987,40.5018 L15.8987,39.8248 L29.7307,39.8248 C40.1797,39.8248 48.7107,31.3308 48.7107,20.8448 C48.7107,10.3958 40.2157,1.8648 29.7307,1.8648 L0.0007,1.8648 L0.0007,2.9158 L29.7307,2.9158 C39.6147,2.9158 47.6957,10.9588 47.6957,20.8828 C47.6957,30.7668 39.6527,38.8478 29.7307,38.8478 L15.8987,38.8478 L15.8987,38.1698 L29.7307,38.1698 C39.2767,38.1698 47.0187,30.4278 47.0187,20.8828 C47.0187,11.3358 39.2767,3.5928 29.7307,3.5928 L0.0007,3.5928 L0.0007,4.6068 L29.7307,4.6068 C38.7127,4.6068 46.0047,11.8988 46.0047,20.8828 C46.0047,29.8648 38.7127,37.1568 29.7307,37.1568 L15.8987,37.1568 L15.8987,36.4418 L29.7307,36.4418 C38.2987,36.4418 45.2897,29.4508 45.2897,20.8828 C45.2897,12.3128 38.2987,5.3218 29.7307,5.3218 L0.0007,5.3218 L0.0007,6.2998 L29.7307,6.2998 C37.7357,6.2998 44.2757,12.8378 44.2757,20.8448 C44.2757,28.8498 37.7357,35.3898 29.7307,35.3898 L15.8987,35.3898 L15.8987,34.6388 L29.7307,34.6388 C37.3597,34.6388 43.5247,28.4368 43.5247,20.8448 C43.5247,13.2528 37.3597,7.0508 29.7307,7.0508 L0.0007,7.0508 L0.0007,8.0648 L29.7307,8.0648 C36.7957,8.0648 42.5467,13.8158 42.5467,20.8828 C42.5467,27.9478 36.7957,33.6988 29.7307,33.6988 L15.8987,33.6988 L15.8987,32.9458 L29.7307,32.9458 C36.3837,32.9458 41.7947,27.5348 41.7947,20.8828 C41.7947,14.2298 36.3837,8.8178 29.7307,8.8178 L0.0007,8.8178 L0.0007,9.8308 L29.7307,9.8308 C35.8187,9.8308 40.7807,14.7928 40.7807,20.8828 C40.7807,26.9708 35.8187,31.9328 29.7307,31.9328 L15.8987,31.9328 L15.8987,31.2928 L29.7307,31.2928 C35.4807,31.2928 40.1417,26.6318 40.1417,20.8828 C40.1417,15.1318 35.4807,10.4708 29.7307,10.4708 L0.0007,10.4708 L0.0007,11.4858 L29.7307,11.4858 C34.9177,11.4858 39.1267,15.6948 39.1267,20.8828 C39.1267,26.0688 34.9177,30.2778 29.7307,30.2778 L15.8987,30.2778 L15.8987,29.6008 L29.7307,29.6008 C34.5407,29.6008 38.4507,25.6928 38.4507,20.8828 C38.4507,16.0708 34.5407,12.1628 29.7307,12.1628 L0.0007,12.1628 L0.0007,13.1768 L29.7307,13.1768 C33.9777,13.1768 37.4357,16.6338 37.4357,20.8828 C37.4357,25.1288 33.9777,28.5868 29.7307,28.5868 L15.8987,28.5868 L15.8987,27.9098 L29.7307,27.9098 C33.6017,27.9098 36.7587,24.7528 36.7587,20.8828 C36.7587,17.0108 33.6017,13.8538 29.7307,13.8538 L0.0007,13.8538 L0.0007,14.8678 L29.7307,14.8678 C33.0387,14.8678 35.7447,17.5738 35.7447,20.8828 C35.7447,24.1898 33.0387,26.8958 29.7307,26.8958 L15.8987,26.8958 L15.8987,15.5068 L0.0007,15.5068 L0.0007,61.9998 L15.8987,61.9998 L15.8987,41.5158 L19.4327,41.5158 L32.6617,61.9998 L51.9427,61.9998 L37.5857,39.9748 Z" id="Fill-3" fill="#FDD205" mask="url(#mask-2)"></path>
            </g>
        </g>
    </g>
</svg>